<svg version="1.2" baseProfile="tiny" id="EdgeSVG_G8on4" x="0px" y="0px" width="86.813px" height="86.809px" viewBox="0 0 86.813 86.809" xmlns:xlink="http://www.w3.org/1999/xlink" xmlns="http://www.w3.org/2000/svg">
  <radialGradient id="SVGID_1_" cx="43.3818" cy="43.418" r="28.0308" gradientUnits="userSpaceOnUse">
    <stop offset="0" style="stop-color:#000000;stop-opacity:0.3"/>
    <stop offset="0.8587" style="stop-color:#000000;stop-opacity:0.3"/>
    <stop offset="1" style="stop-color:#000000;stop-opacity:0.3"/>
  </radialGradient>
  <path fill="url(#SVGID_1_)" d="M71.414,43.416c0,15.481-12.551,28.031-28.031,28.031c-15.484,0-28.033-12.55-28.033-28.031&#xD;&#xA;&#x9;&#x9;c0-15.478,12.549-28.026,28.033-28.026C58.863,15.39,71.414,27.938,71.414,43.416z"/>
  <radialGradient id="SVGID_2_" cx="43.4287" cy="43.4238" r="40.3862" gradientUnits="userSpaceOnUse">
    <stop offset="0" style="stop-color:#000000;stop-opacity:0.3"/>
    <stop offset="0.8587" style="stop-color:#000000;stop-opacity:0.3"/>
    <stop offset="1" style="stop-color:#000000;stop-opacity:0.3"/>
  </radialGradient>
  <path fill="url(#SVGID_2_)" d="M83.816,40.204c-0.111-1.394-0.289-2.767-0.537-4.117c-0.881-0.424-1.676-1.457-2.036-2.794&#xD;&#xA;&#x9;&#x9;c-0.36-1.339-0.177-2.626,0.378-3.432c-0.465-1.315-0.996-2.603-1.591-3.85c-0.964-0.178-2.003-0.96-2.697-2.158&#xD;&#xA;&#x9;&#x9;c-0.692-1.197-0.853-2.485-0.526-3.406c-0.793-1.149-1.646-2.255-2.553-3.314c-0.969,0.07-2.168-0.415-3.141-1.388&#xD;&#xA;&#x9;&#x9;c-0.979-0.976-1.463-2.175-1.393-3.147c-1.059-0.904-2.163-1.757-3.314-2.551c-0.922,0.323-2.206,0.165-3.402-0.523&#xD;&#xA;&#x9;&#x9;c-1.203-0.694-1.985-1.735-2.16-2.696c-1.252-0.597-2.536-1.128-3.853-1.595c-0.805,0.555-2.089,0.737-3.431,0.38&#xD;&#xA;&#x9;&#x9;c-1.34-0.357-2.371-1.154-2.794-2.038c-1.351-0.247-2.722-0.426-4.112-0.535c-0.639,0.741-1.842,1.24-3.225,1.24&#xD;&#xA;&#x9;&#x9;s-2.59-0.499-3.223-1.24c-1.393,0.109-2.768,0.288-4.115,0.535c-0.42,0.885-1.455,1.682-2.794,2.04&#xD;&#xA;&#x9;&#x9;c-1.343,0.36-2.63,0.177-3.437-0.381c-1.313,0.468-2.6,0.997-3.846,1.594c-0.178,0.961-0.957,2.003-2.16,2.698&#xD;&#xA;&#x9;&#x9;c-1.197,0.69-2.486,0.848-3.406,0.523c-1.148,0.794-2.252,1.646-3.311,2.55c0.07,0.972-0.415,2.171-1.393,3.146&#xD;&#xA;&#x9;&#x9;c-0.975,0.975-2.174,1.462-3.145,1.39c-0.906,1.059-1.759,2.164-2.549,3.313c0.323,0.921,0.164,2.209-0.526,3.406&#xD;&#xA;&#x9;&#x9;c-0.694,1.2-1.735,1.981-2.696,2.159c-0.596,1.247-1.127,2.534-1.594,3.849c0.557,0.806,0.736,2.092,0.375,3.432&#xD;&#xA;&#x9;&#x9;c-0.354,1.338-1.152,2.372-2.031,2.795c-0.247,1.35-0.427,2.723-0.539,4.115c0.74,0.639,1.242,1.841,1.242,3.225&#xD;&#xA;&#x9;&#x9;c0,1.378-0.502,2.58-1.242,3.218c0.114,1.394,0.292,2.767,0.539,4.117c0.879,0.423,1.677,1.457,2.031,2.796&#xD;&#xA;&#x9;&#x9;c0.361,1.338,0.182,2.622-0.371,3.43c0.464,1.314,0.994,2.603,1.592,3.851c0.959,0.177,2,0.958,2.694,2.161&#xD;&#xA;&#x9;&#x9;c0.688,1.194,0.848,2.479,0.526,3.4c0.792,1.148,1.645,2.256,2.551,3.316c0.973-0.071,2.168,0.414,3.143,1.391&#xD;&#xA;&#x9;&#x9;c0.976,0.974,1.461,2.169,1.389,3.141c1.063,0.904,2.168,1.758,3.318,2.554c0.92-0.323,2.205-0.165,3.402,0.527&#xD;&#xA;&#x9;&#x9;c1.201,0.691,1.98,1.729,2.158,2.69c1.248,0.597,2.535,1.128,3.852,1.596c0.805-0.555,2.092-0.737,3.433-0.377&#xD;&#xA;&#x9;&#x9;c1.335,0.357,2.368,1.151,2.79,2.034c1.352,0.247,2.729,0.428,4.124,0.536c0.634-0.737,1.837-1.234,3.218-1.234&#xD;&#xA;&#x9;&#x9;c1.378,0,2.581,0.497,3.219,1.234c1.395-0.108,2.77-0.289,4.12-0.536c0.425-0.881,1.456-1.675,2.792-2.032&#xD;&#xA;&#x9;&#x9;c1.34-0.36,2.625-0.178,3.429,0.375c1.316-0.467,2.604-0.998,3.854-1.596c0.177-0.96,0.959-1.997,2.16-2.69&#xD;&#xA;&#x9;&#x9;c1.194-0.69,2.48-0.85,3.4-0.527c1.151-0.794,2.258-1.648,3.316-2.554c-0.069-0.971,0.416-2.167,1.393-3.141&#xD;&#xA;&#x9;&#x9;c0.973-0.975,2.169-1.461,3.139-1.391c0.908-1.061,1.76-2.166,2.555-3.316c-0.324-0.92-0.164-2.206,0.526-3.4&#xD;&#xA;&#x9;&#x9;c0.694-1.201,1.731-1.984,2.694-2.161c0.595-1.248,1.129-2.536,1.594-3.85c-0.555-0.808-0.738-2.093-0.378-3.431&#xD;&#xA;&#x9;&#x9;c0.358-1.338,1.155-2.373,2.036-2.796c0.248-1.351,0.426-2.724,0.537-4.117c-0.739-0.638-1.239-1.84-1.242-3.218&#xD;&#xA;&#x9;&#x9;C82.574,42.045,83.077,40.842,83.816,40.204z"/>
</svg>