<svg version="1.2" baseProfile="tiny" id="EdgeSVG_G8on4" x="0px" y="0px" width="86.813px" height="86.809px" viewBox="0 0 86.813 86.809" xmlns:xlink="http://www.w3.org/1999/xlink" xmlns="http://www.w3.org/2000/svg">
  <radialGradient id="SVGID_6_" cx="43.377" cy="43.4141" r="37.811" gradientUnits="userSpaceOnUse">
    <stop offset="0.8589" style="stop-color:#000000;stop-opacity:0.05"/>
    <stop offset="1" style="stop-color:#000000;stop-opacity:0.1"/>
  </radialGradient>
  <path fill="url(#SVGID_6_)" d="M44.604,77.374c0,3.658-0.63,3.851-1.228,3.851c-0.597,0-1.228-0.192-1.228-3.851&#xD;&#xA;&#x9;&#x9;s0.287-3.406,1.186-3.406C44.234,73.968,44.604,73.716,44.604,77.374z M43.376,5.604c-0.605,0-1.247,0.246-1.247,3.971&#xD;&#xA;&#x9;&#x9;s0.293,3.557,1.205,3.557c0.916,0,1.291,0.168,1.291-3.557S43.983,5.604,43.376,5.604z M48.641,73.511&#xD;&#xA;&#x9;&#x9;c-0.886,0.157-1.211-0.042-0.576,3.562c0.637,3.602,1.291,3.682,1.877,3.578c0.588-0.104,1.176-0.402,0.541-4.005&#xD;&#xA;&#x9;&#x9;C49.846,73.043,49.527,73.354,48.641,73.511z M36.81,6.179c-0.597,0.104-1.186,0.458-0.54,4.128&#xD;&#xA;&#x9;&#x9;c0.648,3.667,0.908,3.45,1.807,3.292c0.901-0.159,1.301-0.059,0.653-3.726C38.084,6.204,37.408,6.071,36.81,6.179z M53.787,72.14&#xD;&#xA;&#x9;&#x9;c-0.847,0.309-1.2,0.169,0.051,3.607c1.252,3.437,1.91,3.401,2.471,3.198c0.561-0.204,1.086-0.601-0.164-4.038&#xD;&#xA;&#x9;&#x9;C54.894,71.47,54.632,71.832,53.787,72.14z M30.443,7.885c-0.569,0.206-1.089,0.658,0.186,4.158c1.275,3.501,1.493,3.242,2.35,2.93&#xD;&#xA;&#x9;&#x9;c0.861-0.313,1.27-0.283-0.002-3.783C31.702,7.689,31.014,7.677,30.443,7.885z M58.618,69.896c-0.781,0.45-1.153,0.374,0.676,3.543&#xD;&#xA;&#x9;&#x9;c1.83,3.169,2.472,3.02,2.987,2.721c0.518-0.298,0.967-0.78-0.863-3.948C59.589,69.045,59.395,69.446,58.618,69.896z&#xD;&#xA;&#x9;&#x9; M24.471,10.671c-0.525,0.303-0.958,0.837,0.904,4.063c1.863,3.226,2.031,2.934,2.822,2.478c0.793-0.458,1.203-0.5-0.66-3.726&#xD;&#xA;&#x9;&#x9;C25.675,10.259,24.996,10.367,24.471,10.671z M62.985,66.849c-0.691,0.577-1.071,0.568,1.279,3.37&#xD;&#xA;&#x9;&#x9;c2.353,2.804,2.959,2.546,3.415,2.162c0.458-0.383,0.816-0.937-1.535-3.738C63.793,65.84,63.672,66.27,62.985,66.849z&#xD;&#xA;&#x9;&#x9; M19.071,14.452c-0.464,0.389-0.798,0.989,1.597,3.844c2.395,2.853,2.51,2.536,3.209,1.948c0.703-0.588,1.099-0.699-1.297-3.554&#xD;&#xA;&#x9;&#x9;C20.188,13.837,19.536,14.063,19.071,14.452z M66.756,63.088c-0.58,0.69-0.955,0.746,1.847,3.098s3.355,1.992,3.738,1.535&#xD;&#xA;&#x9;&#x9;c0.383-0.456,0.642-1.063-2.161-3.415C67.378,61.954,67.332,62.398,66.756,63.088z M14.411,19.112&#xD;&#xA;&#x9;&#x9;c-0.39,0.464-0.614,1.113,2.24,3.51c2.854,2.394,2.911,2.061,3.499,1.36c0.589-0.699,0.96-0.88-1.895-3.274&#xD;&#xA;&#x9;&#x9;C15.402,18.313,14.801,18.647,14.411,19.112z M69.814,58.729c-0.448,0.78-0.809,0.901,2.357,2.731&#xD;&#xA;&#x9;&#x9;c3.169,1.829,3.651,1.379,3.95,0.862c0.298-0.516,0.445-1.159-2.724-2.987C70.232,57.506,70.265,57.951,69.814,58.729z&#xD;&#xA;&#x9;&#x9; M10.63,24.513c-0.302,0.524-0.41,1.202,2.816,3.066c3.227,1.861,3.227,1.524,3.683,0.732c0.458-0.792,0.792-1.034-2.434-2.896&#xD;&#xA;&#x9;&#x9;C11.469,23.553,10.934,23.986,10.63,24.513z M72.074,53.904c-0.309,0.849-0.643,1.029,2.795,2.28&#xD;&#xA;&#x9;&#x9;c3.438,1.252,3.834,0.726,4.038,0.165c0.204-0.56,0.237-1.22-3.2-2.469C72.271,52.629,72.381,53.062,72.074,53.904z M7.846,30.485&#xD;&#xA;&#x9;&#x9;c-0.207,0.57-0.197,1.257,3.306,2.531c3.5,1.273,3.442,0.942,3.754,0.082c0.313-0.858,0.601-1.154-2.899-2.429&#xD;&#xA;&#x9;&#x9;C8.505,29.396,8.053,29.916,7.846,30.485z M73.459,48.763c-0.156,0.888-0.452,1.125,3.149,1.761&#xD;&#xA;&#x9;&#x9;c3.603,0.636,3.901,0.048,4.006-0.539c0.103-0.587,0.023-1.242-3.58-1.876C73.432,47.472,73.614,47.88,73.459,48.763z&#xD;&#xA;&#x9;&#x9; M6.142,36.853c-0.106,0.597,0.024,1.271,3.693,1.919c3.669,0.646,3.554,0.329,3.712-0.57c0.159-0.9,0.391-1.242-3.279-1.891&#xD;&#xA;&#x9;&#x9;C6.6,35.664,6.244,36.255,6.142,36.853z M73.932,43.457c-0.002,0.903-0.252,1.187,3.406,1.188c3.657,0.001,3.851-0.63,3.851-1.225&#xD;&#xA;&#x9;&#x9;c0-0.597-0.192-1.229-3.852-1.228C73.68,42.192,73.93,42.562,73.932,43.457z M5.566,43.419c0,0.606,0.246,1.246,3.972,1.248&#xD;&#xA;&#x9;&#x9;c3.724-0.002,3.558-0.293,3.558-1.207c-0.001-0.914,0.166-1.291-3.558-1.291C5.813,42.168,5.566,42.813,5.566,43.419z&#xD;&#xA;&#x9;&#x9; M73.475,38.152c0.156,0.888-0.043,1.212,3.561,0.578c3.603-0.636,3.682-1.29,3.579-1.877c-0.104-0.588-0.402-1.176-4.006-0.54&#xD;&#xA;&#x9;&#x9;C73.007,36.949,73.317,37.27,73.475,38.152z M6.142,49.984c0.104,0.598,0.458,1.187,4.128,0.54&#xD;&#xA;&#x9;&#x9;c3.668-0.649,3.452-0.906,3.293-1.806c-0.159-0.9-0.059-1.301-3.728-0.654C6.167,48.711,6.035,49.389,6.142,49.984z M72.104,33.005&#xD;&#xA;&#x9;&#x9;c0.308,0.849,0.167,1.201,3.606-0.048c3.436-1.251,3.4-1.91,3.198-2.47c-0.204-0.561-0.601-1.088-4.038,0.165&#xD;&#xA;&#x9;&#x9;C71.434,31.903,71.797,32.164,72.104,33.005z M7.848,56.351c0.209,0.57,0.657,1.088,4.16-0.184&#xD;&#xA;&#x9;&#x9;c3.498-1.277,3.242-1.492,2.929-2.352c-0.313-0.858-0.285-1.271-3.783,0.004C7.653,55.093,7.639,55.781,7.848,56.351z&#xD;&#xA;&#x9;&#x9; M69.859,28.176c0.451,0.782,0.375,1.152,3.544-0.675c3.168-1.827,3.02-2.471,2.722-2.987c-0.299-0.518-0.78-0.968-3.949,0.863&#xD;&#xA;&#x9;&#x9;C69.01,27.205,69.41,27.4,69.859,28.176z M10.634,62.324c0.305,0.524,0.836,0.958,4.063-0.905c3.226-1.863,2.936-2.03,2.479-2.823&#xD;&#xA;&#x9;&#x9;c-0.458-0.791-0.502-1.201-3.727,0.66C10.224,61.118,10.33,61.8,10.634,62.324z M66.811,23.808c0.58,0.693,0.569,1.072,3.373-1.278&#xD;&#xA;&#x9;&#x9;c2.803-2.351,2.544-2.957,2.161-3.414s-0.937-0.817-3.737,1.535C65.805,23.002,66.234,23.123,66.811,23.808z M14.414,67.724&#xD;&#xA;&#x9;&#x9;c0.392,0.464,0.99,0.796,3.846-1.598c2.852-2.395,2.537-2.509,1.949-3.211c-0.588-0.699-0.703-1.095-3.554,1.298&#xD;&#xA;&#x9;&#x9;C13.801,66.607,14.023,67.259,14.414,67.724z M63.051,20.038c0.691,0.581,0.746,0.956,3.098-1.845&#xD;&#xA;&#x9;&#x9;c2.353-2.803,1.993-3.355,1.537-3.739c-0.459-0.384-1.066-0.644-3.415,2.162C61.919,19.418,62.363,19.463,63.051,20.038z&#xD;&#xA;&#x9;&#x9; M19.075,72.385c0.466,0.387,1.113,0.611,3.51-2.241c2.394-2.854,2.062-2.913,1.362-3.501c-0.701-0.586-0.882-0.957-3.275,1.896&#xD;&#xA;&#x9;&#x9;C18.277,71.391,18.61,71.995,19.075,72.385z M58.691,16.977c0.783,0.452,0.902,0.813,2.732-2.354&#xD;&#xA;&#x9;&#x9;c1.829-3.169,1.379-3.65,0.863-3.948c-0.518-0.299-1.162-0.448-2.987,2.721C57.471,16.563,57.916,16.529,58.691,16.977z&#xD;&#xA;&#x9;&#x9; M24.476,76.164c0.526,0.301,1.202,0.41,3.067-2.815c1.859-3.227,1.526-3.227,0.732-3.685c-0.792-0.457-1.035-0.789-2.896,2.436&#xD;&#xA;&#x9;&#x9;C23.518,75.324,23.949,75.86,24.476,76.164z M53.867,14.72c0.852,0.31,1.029,0.643,2.283-2.793c1.25-3.438,0.724-3.834,0.164-4.039&#xD;&#xA;&#x9;&#x9;c-0.562-0.204-1.221-0.24-2.47,3.199C52.594,14.524,53.027,14.414,53.867,14.72z M30.449,78.95&#xD;&#xA;&#x9;&#x9;c0.572,0.204,1.257,0.195,2.532-3.306c1.272-3.501,0.942-3.443,0.08-3.756c-0.857-0.312-1.154-0.598-2.427,2.901&#xD;&#xA;&#x9;&#x9;C29.36,78.289,29.878,78.743,30.449,78.95z M48.726,13.332c0.891,0.158,1.125,0.457,1.762-3.145&#xD;&#xA;&#x9;&#x9;c0.636-3.603,0.048-3.902-0.54-4.005c-0.587-0.104-1.242-0.025-1.875,3.579C47.437,13.363,47.846,13.179,48.726,13.332z&#xD;&#xA;&#x9;&#x9; M36.814,80.655c0.6,0.102,1.271-0.026,1.921-3.696c0.646-3.666,0.329-3.553-0.572-3.712c-0.899-0.157-1.241-0.388-1.888,3.279&#xD;&#xA;&#x9;&#x9;S36.219,80.55,36.814,80.655z"/>
  <radialGradient id="SVGID_7_" cx="43.3828" cy="43.4141" r="27.3657" gradientUnits="userSpaceOnUse">
    <stop offset="0" style="stop-color:#000000;stop-opacity:0.02"/>
    <stop offset="1" style="stop-color:#000000;stop-opacity:0.05"/>
  </radialGradient>
  <path fill="url(#SVGID_7_)" d="M44.83,62.957c0,4.321-0.65,7.823-1.451,7.823s-1.449-3.502-1.449-7.823&#xD;&#xA;&#x9;&#x9;c0-4.318,1.173-14.264,1.531-14.264C43.818,48.693,44.83,58.639,44.83,62.957z M43.379,16.047c-0.813,0-1.473,3.566-1.473,7.964&#xD;&#xA;&#x9;&#x9;c0,4.399,1.191,14.347,1.555,14.347s1.395-9.947,1.395-14.347C44.855,19.613,44.194,16.047,43.379,16.047z M44.369,48.615&#xD;&#xA;&#x9;&#x9;c-0.352,0.061,0.227,10.043,0.977,14.297c0.752,4.256,1.997,7.592,2.785,7.452c0.789-0.139,0.821-3.7,0.07-7.956&#xD;&#xA;&#x9;&#x9;C47.45,58.156,44.721,48.553,44.369,48.615z M38.627,16.463c-0.801,0.142-0.832,3.768-0.067,8.1&#xD;&#xA;&#x9;&#x9;c0.763,4.333,3.655,13.935,4.015,13.872c0.357-0.063-0.346-10.052-1.11-14.384C40.7,19.72,39.43,16.322,38.627,16.463z&#xD;&#xA;&#x9;&#x9; M45.251,48.38c-0.336,0.121,1.975,9.836,3.452,13.895c1.478,4.061,3.284,7.129,4.036,6.856c0.753-0.275,0.165-3.787-1.313-7.848&#xD;&#xA;&#x9;&#x9;C49.949,57.226,45.586,48.257,45.251,48.38z M34.02,17.699c-0.766,0.276-0.165,3.854,1.339,7.988&#xD;&#xA;&#x9;&#x9;c1.505,4.134,6.016,13.102,6.356,12.978c0.342-0.125-2.079-9.854-3.584-13.987C36.627,20.544,34.785,17.421,34.02,17.699z&#xD;&#xA;&#x9;&#x9; M46.077,47.995c-0.31,0.177,3.661,9.329,5.82,13.069c2.16,3.741,4.471,6.451,5.165,6.051c0.693-0.401-0.494-3.758-2.654-7.5&#xD;&#xA;&#x9;&#x9;C52.248,55.875,46.387,47.815,46.077,47.995z M29.697,19.717c-0.705,0.404,0.506,3.824,2.705,7.633&#xD;&#xA;&#x9;&#x9;c2.2,3.81,8.192,11.873,8.506,11.691c0.314-0.182-3.752-9.356-5.951-13.167C32.759,22.063,30.403,19.308,29.697,19.717z&#xD;&#xA;&#x9;&#x9; M46.824,47.471c-0.273,0.23,5.232,8.537,8.008,11.846c2.777,3.312,5.525,5.577,6.139,5.063c0.613-0.516-1.139-3.614-3.917-6.926&#xD;&#xA;&#x9;&#x9;C54.278,54.146,47.098,47.241,46.824,47.471z M25.79,22.452c-0.624,0.522,1.162,3.679,3.989,7.048&#xD;&#xA;&#x9;&#x9;c2.828,3.37,10.121,10.285,10.398,10.052c0.281-0.233-5.311-8.577-8.137-11.948C29.213,24.233,26.414,21.928,25.79,22.452z&#xD;&#xA;&#x9;&#x9; M47.47,46.826c-0.23,0.273,6.642,7.484,9.951,10.261c3.308,2.778,6.407,4.533,6.923,3.919c0.515-0.613-1.748-3.359-5.059-6.139&#xD;&#xA;&#x9;&#x9;C55.976,52.09,47.7,46.551,47.47,46.826z M22.418,25.825c-0.523,0.622,1.784,3.421,5.152,6.249&#xD;&#xA;&#x9;&#x9;c3.371,2.827,11.746,8.385,11.979,8.107c0.234-0.278-6.712-7.54-10.081-10.367C26.098,26.984,22.941,25.201,22.418,25.825z&#xD;&#xA;&#x9;&#x9; M47.992,46.08c-0.178,0.31,7.85,6.202,11.591,8.361c3.741,2.162,7.097,3.352,7.497,2.658c0.401-0.693-2.306-3.008-6.049-5.168&#xD;&#xA;&#x9;&#x9;C57.291,49.773,48.172,45.769,47.992,46.08z M19.682,29.733c-0.408,0.704,2.35,3.06,6.16,5.259&#xD;&#xA;&#x9;&#x9;c3.811,2.198,13.017,6.232,13.198,5.918s-7.913-6.273-11.723-8.474C23.507,30.236,20.09,29.027,19.682,29.733z M48.379,45.252&#xD;&#xA;&#x9;&#x9;c-0.122,0.336,8.814,4.731,12.874,6.209c4.058,1.48,7.57,2.068,7.845,1.314c0.274-0.752-2.793-2.562-6.854-4.038&#xD;&#xA;&#x9;&#x9;C58.184,47.261,48.501,44.916,48.379,45.252z M17.668,34.057c-0.282,0.764,2.846,2.604,6.977,4.109&#xD;&#xA;&#x9;&#x9;c4.137,1.503,13.896,3.892,14.02,3.552c0.125-0.342-8.875-4.82-13.008-6.325C21.522,33.888,17.946,33.291,17.668,34.057z&#xD;&#xA;&#x9;&#x9; M48.615,44.372c-0.061,0.352,9.51,3.112,13.764,3.864c4.254,0.751,7.815,0.722,7.954-0.067c0.14-0.789-3.195-2.036-7.452-2.788&#xD;&#xA;&#x9;&#x9;C58.627,44.634,48.678,44.019,48.615,44.372z M16.434,38.664c-0.146,0.802,3.254,2.072,7.584,2.834&#xD;&#xA;&#x9;&#x9;c4.336,0.764,14.354,1.436,14.417,1.078c0.063-0.357-9.571-3.219-13.903-3.983C20.2,37.829,16.575,37.862,16.434,38.664z&#xD;&#xA;&#x9;&#x9; M48.695,43.464c0,0.356,9.913,1.399,14.23,1.4c4.321,0.001,7.822-0.646,7.822-1.447s-3.5-1.452-7.822-1.451&#xD;&#xA;&#x9;&#x9;C58.607,41.967,48.695,43.105,48.695,43.464z M16.019,43.416c-0.003,0.814,3.565,1.476,7.962,1.475&#xD;&#xA;&#x9;&#x9;c4.402-0.002,14.377-1.065,14.377-1.428c0-0.364-9.978-1.523-14.376-1.523C19.584,41.939,16.019,42.601,16.019,43.416z&#xD;&#xA;&#x9;&#x9; M48.617,42.554c0.061,0.353,10.012-0.356,14.265-1.104c4.255-0.75,7.591-1.997,7.453-2.786c-0.14-0.788-3.7-0.821-7.956-0.07&#xD;&#xA;&#x9;&#x9;C58.125,39.346,48.555,42.201,48.617,42.554z M16.436,48.167c0.138,0.803,3.766,0.835,8.096,0.069&#xD;&#xA;&#x9;&#x9;c4.335-0.766,13.967-3.53,13.904-3.887c-0.063-0.358-10.083,0.217-14.416,0.98C19.688,46.094,16.293,47.366,16.436,48.167z&#xD;&#xA;&#x9;&#x9; M48.38,41.674c0.123,0.335,9.806-2.105,13.864-3.581c4.061-1.476,7.13-3.282,6.856-4.036c-0.275-0.753-3.786-0.168-7.847,1.313&#xD;&#xA;&#x9;&#x9;C57.194,36.848,48.258,41.336,48.38,41.674z M17.671,52.774c0.274,0.766,3.854,0.167,7.985-1.338&#xD;&#xA;&#x9;&#x9;c4.135-1.506,13.133-5.887,13.01-6.228c-0.124-0.342-9.885,1.951-14.02,3.455C20.514,50.168,17.392,52.01,17.671,52.774z&#xD;&#xA;&#x9;&#x9; M47.995,40.847c0.179,0.309,9.297-3.79,13.04-5.948c3.742-2.159,6.451-4.471,6.051-5.165c-0.401-0.693-3.758,0.491-7.5,2.655&#xD;&#xA;&#x9;&#x9;C55.846,34.549,47.816,40.536,47.995,40.847z M19.687,57.097c0.403,0.708,3.824-0.504,7.632-2.703&#xD;&#xA;&#x9;&#x9;c3.812-2.202,11.904-8.064,11.725-8.379c-0.183-0.314-9.389,3.623-13.198,5.822C22.033,54.036,19.279,56.392,19.687,57.097z&#xD;&#xA;&#x9;&#x9; M47.473,40.099c0.229,0.273,8.505-5.361,11.815-8.136c3.31-2.776,5.577-5.524,5.062-6.139c-0.516-0.612-3.614,1.138-6.924,3.917&#xD;&#xA;&#x9;&#x9;C54.116,32.519,47.242,39.824,47.473,40.099z M22.422,61.003c0.52,0.627,3.681-1.159,7.047-3.986&#xD;&#xA;&#x9;&#x9;c3.371-2.831,10.316-9.994,10.084-10.273c-0.233-0.277-8.609,5.185-11.979,8.013C24.203,57.583,21.898,60.38,22.422,61.003z&#xD;&#xA;&#x9;&#x9; M46.827,39.453c0.274,0.23,7.452-6.771,10.231-10.078c2.778-3.311,4.531-6.409,3.918-6.925c-0.613-0.514-3.362,1.749-6.138,5.061&#xD;&#xA;&#x9;&#x9;C52.062,30.82,46.553,39.223,46.827,39.453z M25.795,64.375c0.622,0.528,3.422-1.782,6.249-5.149&#xD;&#xA;&#x9;&#x9;c2.827-3.374,8.415-11.619,8.138-11.854c-0.278-0.233-7.572,6.585-10.398,9.955C26.955,60.699,25.172,63.852,25.795,64.375z&#xD;&#xA;&#x9;&#x9; M46.08,38.931c0.309,0.179,6.171-7.978,8.332-11.716c2.162-3.742,3.352-7.1,2.657-7.501c-0.692-0.399-3.009,2.306-5.166,6.049&#xD;&#xA;&#x9;&#x9;C49.744,29.505,45.771,38.751,46.08,38.931z M29.701,67.111c0.705,0.41,3.063-2.35,5.26-6.157&#xD;&#xA;&#x9;&#x9;c2.198-3.813,6.265-12.89,5.949-13.071c-0.313-0.182-6.305,7.785-8.505,11.595C30.207,63.289,28.996,66.703,29.701,67.111z&#xD;&#xA;&#x9;&#x9; M45.255,38.544c0.335,0.123,4.698-8.942,6.177-12.999c1.48-4.061,2.068-7.572,1.314-7.849c-0.752-0.272-2.562,2.794-4.037,6.855&#xD;&#xA;&#x9;&#x9;C47.232,28.612,44.918,38.422,45.255,38.544z M34.025,69.127c0.765,0.282,2.607-2.845,4.109-6.978&#xD;&#xA;&#x9;&#x9;c1.503-4.135,3.924-13.768,3.582-13.891c-0.34-0.124-4.851,8.747-6.354,12.881C33.858,65.274,33.26,68.849,34.025,69.127z&#xD;&#xA;&#x9;&#x9; M44.373,38.308c0.353,0.063,3.081-9.636,3.834-13.89c0.752-4.256,0.721-7.815-0.068-7.957c-0.787-0.138-2.038,3.196-2.786,7.451&#xD;&#xA;&#x9;&#x9;C44.605,28.168,44.021,38.246,44.373,38.308z M38.633,70.361c0.803,0.146,2.072-3.255,2.836-7.584&#xD;&#xA;&#x9;&#x9;c0.761-4.335,1.467-14.226,1.109-14.288c-0.358-0.064-3.252,9.441-4.017,13.773C37.8,66.598,37.831,70.219,38.633,70.361z"/>
  <linearGradient id="SVGID_8_" gradientUnits="userSpaceOnUse" x1="15.3496" y1="43.418" x2="71.4141" y2="43.418">
    <stop offset="0" style="stop-color:#FFFFFF;stop-opacity:0.1"/>
    <stop offset="0.2567" style="stop-color:#C1C1C1;stop-opacity:0.0872"/>
    <stop offset="0.847" style="stop-color:#292929;stop-opacity:0.0576"/>
    <stop offset="1" style="stop-color:#000000;stop-opacity:0.05"/>
  </linearGradient>
  <path fill="url(#SVGID_8_)" d="M43.383,71.446c-15.46,0-28.033-12.573-28.033-28.03c0-15.452,12.573-28.025,28.033-28.025&#xD;&#xA;&#x9;&#x9;c15.458,0,28.031,12.573,28.031,28.025C71.414,58.873,58.841,71.446,43.383,71.446z"/>
  <g>
    <linearGradient id="SVGID_9_" gradientUnits="userSpaceOnUse" x1="43.3809" y1="72.7266" x2="43.3809" y2="14.1084">
      <stop offset="0" style="stop-color:#FFFFFF;stop-opacity:0.1"/>
      <stop offset="0.2567" style="stop-color:#C1C1C1;stop-opacity:0.0872"/>
      <stop offset="0.847" style="stop-color:#292929;stop-opacity:0.0576"/>
      <stop offset="1" style="stop-color:#000000;stop-opacity:0.05"/>
    </linearGradient>
    <path fill="url(#SVGID_9_)" d="M43.383,14.108c-16.19,0-29.315,13.125-29.315,29.308c0,16.193,13.125,29.311,29.315,29.311&#xD;&#xA;&#x9;&#x9;&#x9;c16.194,0,29.313-13.117,29.313-29.311C72.695,27.233,59.577,14.108,43.383,14.108z M43.383,71.446&#xD;&#xA;&#x9;&#x9;&#x9;c-15.46,0-28.033-12.573-28.033-28.03c0-15.452,12.573-28.025,28.033-28.025c15.458,0,28.031,12.573,28.031,28.025&#xD;&#xA;&#x9;&#x9;&#x9;C71.414,58.873,58.841,71.446,43.383,71.446z"/>
    <linearGradient id="SVGID_10_" gradientUnits="userSpaceOnUse" x1="43.3818" y1="66.1152" x2="43.3818" y2="20.7227">
      <stop offset="0" style="stop-color:#FFFFFF;stop-opacity:0.1"/>
      <stop offset="0.2567" style="stop-color:#C1C1C1;stop-opacity:0.0872"/>
      <stop offset="0.847" style="stop-color:#292929;stop-opacity:0.0576"/>
      <stop offset="1" style="stop-color:#000000;stop-opacity:0.05"/>
    </linearGradient>
    <path fill="url(#SVGID_10_)" d="M43.383,20.723c-12.537,0-22.701,10.157-22.701,22.693c0,12.541,10.164,22.699,22.701,22.699&#xD;&#xA;&#x9;&#x9;&#x9;c12.534,0,22.699-10.158,22.699-22.699C66.082,30.88,55.917,20.723,43.383,20.723z M43.383,64.833&#xD;&#xA;&#x9;&#x9;&#x9;c-11.813,0-21.418-9.607-21.418-21.417c0-11.806,9.605-21.412,21.418-21.412c11.811,0,21.417,9.606,21.417,21.412&#xD;&#xA;&#x9;&#x9;&#x9;C64.8,55.226,55.193,64.833,43.383,64.833z"/>
    <linearGradient id="SVGID_11_" gradientUnits="userSpaceOnUse" x1="43.3848" y1="59.5254" x2="43.3848" y2="27.3105">
      <stop offset="0" style="stop-color:#FFFFFF;stop-opacity:0.1"/>
      <stop offset="0.2567" style="stop-color:#C1C1C1;stop-opacity:0.0872"/>
      <stop offset="0.847" style="stop-color:#292929;stop-opacity:0.0576"/>
      <stop offset="1" style="stop-color:#000000;stop-opacity:0.05"/>
    </linearGradient>
    <path fill="url(#SVGID_11_)" d="M43.383,27.311c-8.896,0-16.105,7.216-16.105,16.105c0,8.9,7.209,16.109,16.105,16.109&#xD;&#xA;&#x9;&#x9;&#x9;c8.895,0,16.109-7.209,16.109-16.109C59.492,34.526,52.277,27.311,43.383,27.311z M43.383,58.244&#xD;&#xA;&#x9;&#x9;&#x9;c-8.179,0-14.823-6.651-14.823-14.828c0-8.171,6.645-14.824,14.823-14.824c8.176,0,14.829,6.653,14.829,14.824&#xD;&#xA;&#x9;&#x9;&#x9;C58.212,51.593,51.559,58.244,43.383,58.244z"/>
    <linearGradient id="SVGID_12_" gradientUnits="userSpaceOnUse" x1="43.3809" y1="52.8301" x2="43.3809" y2="34.0078">
      <stop offset="0" style="stop-color:#FFFFFF;stop-opacity:0.1"/>
      <stop offset="0.2567" style="stop-color:#C1C1C1;stop-opacity:0.0872"/>
      <stop offset="0.847" style="stop-color:#292929;stop-opacity:0.0576"/>
      <stop offset="1" style="stop-color:#000000;stop-opacity:0.05"/>
    </linearGradient>
    <path fill="url(#SVGID_12_)" d="M43.383,34.008c-5.199,0-9.416,4.21-9.416,9.408c0,5.204,4.217,9.414,9.416,9.414&#xD;&#xA;&#x9;&#x9;&#x9;c5.196,0,9.413-4.21,9.413-9.414C52.796,38.218,48.579,34.008,43.383,34.008z M43.383,51.546c-4.488,0-8.135-3.646-8.135-8.13&#xD;&#xA;&#x9;&#x9;&#x9;c0-4.479,3.646-8.127,8.135-8.127c4.486,0,8.131,3.647,8.131,8.127C51.514,47.9,47.869,51.546,43.383,51.546z"/>
  </g>
  <g>
    <g>
      <linearGradient id="SVGID_13_" gradientUnits="userSpaceOnUse" x1="43.3828" y1="11.4209" x2="43.3828" y2="75.417">
        <stop offset="0" style="stop-color:#FFFFFF;stop-opacity:0.1"/>
        <stop offset="0.2567" style="stop-color:#C1C1C1;stop-opacity:0.0872"/>
        <stop offset="0.847" style="stop-color:#292929;stop-opacity:0.0576"/>
        <stop offset="1" style="stop-color:#000000;stop-opacity:0.05"/>
      </linearGradient>
      <path fill="url(#SVGID_13_)" d="M43.383,11.421c-17.645,0-32.003,14.352-32.003,31.995c0,17.649,14.358,32.001,32.003,32.001&#xD;&#xA;&#x9;&#x9;&#x9;&#x9;c17.643,0,32.002-14.352,32.002-32.001C75.385,25.772,61.025,11.421,43.383,11.421z M43.383,74.075&#xD;&#xA;&#x9;&#x9;&#x9;&#x9;c-16.934,0-30.663-13.722-30.663-30.659c0-16.926,13.729-30.655,30.663-30.655c16.939,0,30.662,13.729,30.662,30.655&#xD;&#xA;&#x9;&#x9;&#x9;&#x9;C74.045,60.354,60.322,74.075,43.383,74.075z"/>
    </g>
    <linearGradient id="SVGID_14_" gradientUnits="userSpaceOnUse" x1="43.3818" y1="19.4404" x2="43.3818" y2="67.3955">
      <stop offset="0" style="stop-color:#FFFFFF;stop-opacity:0.1"/>
      <stop offset="0.2567" style="stop-color:#C1C1C1;stop-opacity:0.0872"/>
      <stop offset="0.847" style="stop-color:#292929;stop-opacity:0.0576"/>
      <stop offset="1" style="stop-color:#000000;stop-opacity:0.05"/>
    </linearGradient>
    <path fill="url(#SVGID_14_)" d="M43.383,19.44C30.161,19.44,19.4,30.195,19.4,43.416c0,13.227,10.761,23.979,23.982,23.979&#xD;&#xA;&#x9;&#x9;&#x9;c13.221,0,23.98-10.753,23.98-23.979C67.363,30.195,56.604,19.44,43.383,19.44z M43.383,66.115&#xD;&#xA;&#x9;&#x9;&#x9;c-12.537,0-22.701-10.158-22.701-22.699c0-12.536,10.164-22.693,22.701-22.693c12.534,0,22.699,10.157,22.699,22.693&#xD;&#xA;&#x9;&#x9;&#x9;C66.082,55.957,55.917,66.115,43.383,66.115z"/>
    <linearGradient id="SVGID_15_" gradientUnits="userSpaceOnUse" x1="43.3848" y1="26.0283" x2="43.3848" y2="60.8086">
      <stop offset="0" style="stop-color:#FFFFFF;stop-opacity:0.1"/>
      <stop offset="0.2567" style="stop-color:#C1C1C1;stop-opacity:0.0872"/>
      <stop offset="0.847" style="stop-color:#292929;stop-opacity:0.0576"/>
      <stop offset="1" style="stop-color:#000000;stop-opacity:0.05"/>
    </linearGradient>
    <path fill="url(#SVGID_15_)" d="M43.383,26.028c-9.589,0-17.389,7.8-17.389,17.388c0,9.593,7.8,17.393,17.389,17.393&#xD;&#xA;&#x9;&#x9;&#x9;c9.586,0,17.393-7.8,17.393-17.393C60.775,33.828,52.969,26.028,43.383,26.028z M43.383,59.525&#xD;&#xA;&#x9;&#x9;&#x9;c-8.896,0-16.105-7.209-16.105-16.109c0-8.89,7.209-16.105,16.105-16.105c8.895,0,16.109,7.216,16.109,16.105&#xD;&#xA;&#x9;&#x9;&#x9;C59.492,52.316,52.277,59.525,43.383,59.525z"/>
    <linearGradient id="SVGID_16_" gradientUnits="userSpaceOnUse" x1="43.3818" y1="32.7256" x2="43.3818" y2="54.1113">
      <stop offset="0" style="stop-color:#FFFFFF;stop-opacity:0.1"/>
      <stop offset="0.2567" style="stop-color:#C1C1C1;stop-opacity:0.0872"/>
      <stop offset="0.847" style="stop-color:#292929;stop-opacity:0.0576"/>
      <stop offset="1" style="stop-color:#000000;stop-opacity:0.05"/>
    </linearGradient>
    <path fill="url(#SVGID_16_)" d="M43.383,32.726c-5.897,0-10.697,4.793-10.697,10.69c0,5.902,4.8,10.695,10.697,10.695&#xD;&#xA;&#x9;&#x9;&#x9;c5.895,0,10.695-4.793,10.695-10.695C54.078,37.519,49.277,32.726,43.383,32.726z M43.383,52.83c-5.199,0-9.416-4.21-9.416-9.414&#xD;&#xA;&#x9;&#x9;&#x9;c0-5.198,4.217-9.408,9.416-9.408c5.196,0,9.413,4.21,9.413,9.408C52.796,48.62,48.579,52.83,43.383,52.83z"/>
    <linearGradient id="SVGID_17_" gradientUnits="userSpaceOnUse" x1="43.3809" y1="39.4297" x2="43.3809" y2="47.4072">
      <stop offset="0" style="stop-color:#FFFFFF;stop-opacity:0.1"/>
      <stop offset="0.2567" style="stop-color:#C1C1C1;stop-opacity:0.0872"/>
      <stop offset="0.847" style="stop-color:#292929;stop-opacity:0.0576"/>
      <stop offset="1" style="stop-color:#000000;stop-opacity:0.05"/>
    </linearGradient>
    <path fill="url(#SVGID_17_)" d="M43.383,39.43c-2.205,0-3.994,1.787-3.994,3.991c0,2.198,1.789,3.986,3.994,3.986&#xD;&#xA;&#x9;&#x9;&#x9;c2.201,0,3.991-1.788,3.991-3.986C47.374,41.217,45.584,39.43,43.383,39.43z"/>
  </g>
  <linearGradient id="SVGID_18_" gradientUnits="userSpaceOnUse" x1="43.3809" y1="4.4805" x2="43.3809" y2="82.3535">
    <stop offset="0" style="stop-color:#FFFFFF;stop-opacity:0.35"/>
    <stop offset="0.1953" style="stop-color:#C1C1C1;stop-opacity:0.2987"/>
    <stop offset="0.6443" style="stop-color:#292929;stop-opacity:0.1806"/>
    <stop offset="0.7607" style="stop-color:#000000;stop-opacity:0.15"/>
    <stop offset="1" style="stop-color:#000000;stop-opacity:0.05"/>
  </linearGradient>
  <path fill="url(#SVGID_18_)" d="M43.381,4.48c-21.506,0-38.938,17.431-38.938,38.937c0,21.505,17.433,38.937,38.938,38.937&#xD;&#xA;&#x9;&#x9;S82.32,64.922,82.32,43.417C82.32,21.911,64.887,4.48,43.381,4.48z M43.383,75.417c-17.645,0-32.003-14.352-32.003-32.001&#xD;&#xA;&#x9;&#x9;c0-17.644,14.358-31.995,32.003-31.995c17.643,0,32.002,14.352,32.002,31.995C75.385,61.065,61.025,75.417,43.383,75.417z"/>
  <g>
    <linearGradient id="SVGID_19_" gradientUnits="userSpaceOnUse" x1="22.7734" y1="10.4688" x2="40.1563" y2="10.4688">
      <stop offset="0" style="stop-color:#FFFFFF;stop-opacity:0.2"/>
      <stop offset="1" style="stop-color:#FFFFFF;stop-opacity:0.2"/>
    </linearGradient>
    <path fill="url(#SVGID_19_)" d="M40.156,11.561c-4.979,0.53-9.842,2.031-13.828,4.676l-3.555-5.803&#xD;&#xA;&#x9;&#x9;&#x9;C27.624,7.22,33.49,5.34,39.544,4.701L40.156,11.561z"/>
    <linearGradient id="SVGID_20_" gradientUnits="userSpaceOnUse" x1="46.4404" y1="10.3887" x2="63.8271" y2="10.3887">
      <stop offset="0" style="stop-color:#FFFFFF;stop-opacity:0.2"/>
      <stop offset="1" style="stop-color:#FFFFFF;stop-opacity:0.2"/>
    </linearGradient>
    <path fill="url(#SVGID_20_)" d="M60.135,16.114c-4.197-2.731-8.934-4.117-13.694-4.582l0.741-6.869&#xD;&#xA;&#x9;&#x9;&#x9;c5.792,0.568,11.545,2.293,16.646,5.617L60.135,16.114z"/>
  </g>
  <g>
    <linearGradient id="SVGID_21_" gradientUnits="userSpaceOnUse" x1="46.6738" y1="69.5313" x2="59.9531" y2="69.5313">
      <stop offset="0" style="stop-color:#FFFFFF;stop-opacity:0.2"/>
      <stop offset="1" style="stop-color:#FFFFFF;stop-opacity:0.2"/>
    </linearGradient>
    <path fill="url(#SVGID_21_)" d="M46.674,71.324c4.649-0.57,8.963-2.294,12.66-4.895l0.619,1.104&#xD;&#xA;&#x9;&#x9;&#x9;c-3.857,2.708-8.355,4.508-13.201,5.098L46.674,71.324z"/>
    <linearGradient id="SVGID_22_" gradientUnits="userSpaceOnUse" x1="27.6514" y1="69.8525" x2="41.1748" y2="69.8525">
      <stop offset="0" style="stop-color:#FFFFFF;stop-opacity:0.2"/>
      <stop offset="1" style="stop-color:#FFFFFF;stop-opacity:0.2"/>
    </linearGradient>
    <path fill="url(#SVGID_22_)" d="M28.363,66.965c3.957,2.589,8.355,4.066,12.812,4.46l-0.167,1.315&#xD;&#xA;&#x9;&#x9;&#x9;c-4.646-0.413-9.236-1.949-13.356-4.65L28.363,66.965z"/>
  </g>
  <g>
    <linearGradient id="SVGID_23_" gradientUnits="userSpaceOnUse" x1="14.0674" y1="40.6816" x2="16.8203" y2="40.6816">
      <stop offset="0" style="stop-color:#FFFFFF;stop-opacity:0.1"/>
      <stop offset="1" style="stop-color:#FFFFFF;stop-opacity:0.1"/>
    </linearGradient>
    <path fill="url(#SVGID_23_)" d="M16.82,34.13c-1.508,4.434-1.833,9.066-1.102,13.528l-1.261,0.076&#xD;&#xA;&#x9;&#x9;&#x9;c-0.763-4.649-0.425-9.484,1.151-14.104L16.82,34.13z"/>
    <linearGradient id="SVGID_24_" gradientUnits="userSpaceOnUse" x1="18.0117" y1="23.7715" x2="28.71" y2="23.7715">
      <stop offset="0" style="stop-color:#FFFFFF;stop-opacity:0.1"/>
      <stop offset="1" style="stop-color:#FFFFFF;stop-opacity:0.1"/>
    </linearGradient>
    <path fill="url(#SVGID_24_)" d="M28.71,19.538c-4.05,2.437-7.294,5.754-9.587,9.595l-1.111-0.724&#xD;&#xA;&#x9;&#x9;&#x9;c2.393-4.001,5.771-7.467,9.997-10L28.71,19.538z"/>
    <linearGradient id="SVGID_25_" gradientUnits="userSpaceOnUse" x1="58.667" y1="24.3213" x2="69.0918" y2="24.3213">
      <stop offset="0" style="stop-color:#FFFFFF;stop-opacity:0.1"/>
      <stop offset="1" style="stop-color:#FFFFFF;stop-opacity:0.1"/>
    </linearGradient>
    <path fill="url(#SVGID_25_)" d="M67.904,29.785c-2.252-4.107-5.449-7.473-9.237-9.944l0.797-0.983&#xD;&#xA;&#x9;&#x9;&#x9;c3.944,2.578,7.284,6.09,9.628,10.371L67.904,29.785z"/>
    <linearGradient id="SVGID_26_" gradientUnits="userSpaceOnUse" x1="70.248" y1="41.9727" x2="72.751" y2="41.9727">
      <stop offset="0" style="stop-color:#FFFFFF;stop-opacity:0.1"/>
      <stop offset="1" style="stop-color:#FFFFFF;stop-opacity:0.1"/>
    </linearGradient>
    <path fill="url(#SVGID_26_)" d="M70.857,48.791c0.936-4.633,0.677-9.266-0.609-13.551l1.285-0.331&#xD;&#xA;&#x9;&#x9;&#x9;c1.337,4.467,1.613,9.3,0.63,14.127L70.857,48.791z"/>
  </g>
  <g>
    <linearGradient id="SVGID_27_" gradientUnits="userSpaceOnUse" x1="74.1387" y1="45.7715" x2="82.3291" y2="45.7715">
      <stop offset="0" style="stop-color:#FFFFFF;stop-opacity:0.1"/>
      <stop offset="1" style="stop-color:#FFFFFF;stop-opacity:0.1"/>
    </linearGradient>
    <path fill="url(#SVGID_27_)" d="M74.139,52.41c1.475-4.785,1.713-9.727,0.853-14.434l6.734-0.981&#xD;&#xA;&#x9;&#x9;&#x9;c1.043,5.725,0.757,11.739-1.042,17.554L74.139,52.41z"/>
    <linearGradient id="SVGID_28_" gradientUnits="userSpaceOnUse" x1="61.5508" y1="67.2422" x2="77.3418" y2="67.2422">
      <stop offset="0" style="stop-color:#FFFFFF;stop-opacity:0.1"/>
      <stop offset="1" style="stop-color:#FFFFFF;stop-opacity:0.1"/>
    </linearGradient>
    <path fill="url(#SVGID_28_)" d="M61.551,69.726c4.164-2.782,7.468-6.465,9.771-10.657l6.02,3.389&#xD;&#xA;&#x9;&#x9;&#x9;c-2.805,5.098-6.819,9.582-11.884,12.96L61.551,69.726z"/>
    <linearGradient id="SVGID_29_" gradientUnits="userSpaceOnUse" x1="9.9248" y1="67.9668" x2="25.9941" y2="67.9668">
      <stop offset="0" style="stop-color:#FFFFFF;stop-opacity:0.1"/>
      <stop offset="1" style="stop-color:#FFFFFF;stop-opacity:0.1"/>
    </linearGradient>
    <path fill="url(#SVGID_29_)" d="M15.922,59.886c2.533,4.318,6.021,7.83,10.072,10.373l-3.866,5.79&#xD;&#xA;&#x9;&#x9;&#x9;c-4.927-3.096-9.126-7.526-12.203-12.777L15.922,59.886z"/>
    <linearGradient id="SVGID_30_" gradientUnits="userSpaceOnUse" x1="4.4326" y1="46.709" x2="12.9668" y2="46.709">
      <stop offset="0" style="stop-color:#FFFFFF;stop-opacity:0.1"/>
      <stop offset="1" style="stop-color:#FFFFFF;stop-opacity:0.1"/>
    </linearGradient>
    <path fill="url(#SVGID_30_)" d="M11.7,38.909c-0.759,4.952-0.271,9.873,1.267,14.403l-6.565,2.155&#xD;&#xA;&#x9;&#x9;&#x9;C4.534,49.956,3.936,43.967,4.863,37.95L11.7,38.909z"/>
  </g>
  <linearGradient id="SVGID_31_" gradientUnits="userSpaceOnUse" x1="43.4287" y1="3.0391" x2="43.4287" y2="83.8086">
    <stop offset="0.3067" style="stop-color:#FFFFFF;stop-opacity:0.2"/>
    <stop offset="0.7301" style="stop-color:#FFFFFF;stop-opacity:0.05"/>
  </linearGradient>
  <path fill="url(#SVGID_31_)" d="M83.816,40.204c-0.111-1.394-0.289-2.767-0.537-4.117c-0.881-0.424-1.676-1.457-2.036-2.794&#xD;&#xA;&#x9;&#x9;c-0.36-1.339-0.177-2.626,0.378-3.432c-0.465-1.315-0.996-2.603-1.591-3.85c-0.964-0.178-2.003-0.96-2.697-2.158&#xD;&#xA;&#x9;&#x9;c-0.692-1.197-0.853-2.485-0.526-3.406c-0.793-1.149-1.646-2.255-2.553-3.314c-0.969,0.07-2.168-0.415-3.141-1.388&#xD;&#xA;&#x9;&#x9;c-0.979-0.976-1.463-2.175-1.393-3.147c-1.059-0.904-2.163-1.757-3.314-2.551c-0.922,0.323-2.206,0.165-3.402-0.523&#xD;&#xA;&#x9;&#x9;c-1.203-0.694-1.985-1.735-2.16-2.696c-1.252-0.597-2.536-1.128-3.853-1.595c-0.805,0.555-2.089,0.737-3.431,0.38&#xD;&#xA;&#x9;&#x9;c-1.34-0.357-2.371-1.154-2.794-2.038c-1.351-0.247-2.722-0.426-4.112-0.535c-0.639,0.741-1.842,1.24-3.225,1.24&#xD;&#xA;&#x9;&#x9;s-2.59-0.499-3.223-1.24c-1.393,0.109-2.768,0.288-4.115,0.535c-0.42,0.885-1.455,1.682-2.794,2.04&#xD;&#xA;&#x9;&#x9;c-1.343,0.36-2.63,0.177-3.437-0.381c-1.313,0.468-2.6,0.997-3.846,1.594c-0.178,0.961-0.957,2.003-2.16,2.698&#xD;&#xA;&#x9;&#x9;c-1.197,0.69-2.486,0.848-3.406,0.523c-1.148,0.794-2.252,1.646-3.311,2.55c0.07,0.972-0.415,2.171-1.393,3.146&#xD;&#xA;&#x9;&#x9;c-0.975,0.975-2.174,1.462-3.145,1.39c-0.906,1.059-1.759,2.164-2.549,3.313c0.323,0.921,0.164,2.209-0.526,3.406&#xD;&#xA;&#x9;&#x9;c-0.694,1.2-1.735,1.981-2.696,2.159c-0.596,1.247-1.127,2.534-1.594,3.849c0.557,0.806,0.736,2.092,0.375,3.432&#xD;&#xA;&#x9;&#x9;c-0.354,1.338-1.152,2.372-2.031,2.795c-0.247,1.35-0.427,2.723-0.539,4.115c0.74,0.639,1.242,1.841,1.242,3.225&#xD;&#xA;&#x9;&#x9;c0,1.378-0.502,2.58-1.242,3.218c0.114,1.394,0.292,2.767,0.539,4.117c0.879,0.423,1.677,1.457,2.031,2.796&#xD;&#xA;&#x9;&#x9;c0.361,1.338,0.182,2.622-0.371,3.43c0.464,1.314,0.994,2.603,1.592,3.851c0.959,0.177,2,0.958,2.694,2.161&#xD;&#xA;&#x9;&#x9;c0.688,1.194,0.848,2.479,0.526,3.4c0.792,1.148,1.645,2.256,2.551,3.316c0.973-0.071,2.168,0.414,3.143,1.391&#xD;&#xA;&#x9;&#x9;c0.976,0.974,1.461,2.169,1.389,3.141c1.063,0.904,2.168,1.758,3.318,2.554c0.92-0.323,2.205-0.165,3.402,0.527&#xD;&#xA;&#x9;&#x9;c1.201,0.691,1.98,1.729,2.158,2.69c1.248,0.597,2.535,1.128,3.852,1.596c0.805-0.555,2.092-0.737,3.433-0.377&#xD;&#xA;&#x9;&#x9;c1.335,0.357,2.368,1.151,2.79,2.034c1.352,0.247,2.729,0.428,4.124,0.536c0.634-0.737,1.837-1.234,3.218-1.234&#xD;&#xA;&#x9;&#x9;c1.378,0,2.581,0.497,3.219,1.234c1.395-0.108,2.77-0.289,4.12-0.536c0.425-0.881,1.456-1.675,2.792-2.032&#xD;&#xA;&#x9;&#x9;c1.34-0.36,2.625-0.178,3.429,0.375c1.316-0.467,2.604-0.998,3.854-1.596c0.177-0.96,0.959-1.997,2.16-2.69&#xD;&#xA;&#x9;&#x9;c1.194-0.69,2.48-0.85,3.4-0.527c1.151-0.794,2.258-1.648,3.316-2.554c-0.069-0.971,0.416-2.167,1.393-3.141&#xD;&#xA;&#x9;&#x9;c0.973-0.975,2.169-1.461,3.139-1.391c0.908-1.061,1.76-2.166,2.555-3.316c-0.324-0.92-0.164-2.206,0.526-3.4&#xD;&#xA;&#x9;&#x9;c0.694-1.201,1.731-1.984,2.694-2.161c0.595-1.248,1.129-2.536,1.594-3.85c-0.555-0.808-0.738-2.093-0.378-3.431&#xD;&#xA;&#x9;&#x9;c0.358-1.338,1.155-2.373,2.036-2.796c0.248-1.351,0.426-2.724,0.537-4.117c-0.739-0.638-1.239-1.84-1.242-3.218&#xD;&#xA;&#x9;&#x9;C82.574,42.045,83.077,40.842,83.816,40.204z M43.43,82.325c-21.488,0-38.906-17.415-38.906-38.901S21.941,4.526,43.43,4.526&#xD;&#xA;&#x9;&#x9;c21.486,0,38.902,17.411,38.902,38.897S64.916,82.325,43.43,82.325z"/>
</svg>