<svg version="1.2" baseProfile="tiny" viewBox="0 0 86.813 86.809" xmlns:xlink="http://www.w3.org/1999/xlink" xmlns="http://www.w3.org/2000/svg">
<path style="fill:#ffffff;" d="M83.8162,40.2038C83.7051,38.8097,83.5271,37.4372,83.2788,36.0874C82.3977,35.6629,81.6034,34.6298,81.2431,33.293C80.8828,31.9544,81.066,30.667,81.6207,29.8614C81.1563,28.5463,80.625,27.258,80.0303,26.0106C79.0658,25.8326,78.0267,25.0513,77.333,23.8534C76.6411,22.6563,76.4797,21.368,76.8069,20.447C76.0143,19.2976,75.161,18.1917,74.2538,17.1326C73.2849,17.2029,72.086,16.7177,71.1129,15.7454C70.1336,14.7688,69.6501,13.57,69.7204,12.5977C68.6613,11.694,67.557,10.8407,66.4059,10.0473C65.4839,10.3702,64.2,10.2122,63.0037,9.5238C61.8013,8.8302,61.0191,7.7894,60.8438,6.8284C59.5919,6.2312,58.308,5.6999,56.991,5.2328C56.1862,5.7884,54.9023,5.9699,53.5602,5.6131C52.2198,5.2563,51.1893,4.4594,50.7656,3.5748C49.4148,3.3283,48.0441,3.1494,46.6542,3.0401C46.0152,3.7814,44.812,4.2797,43.4291,4.2797C42.0461,4.2797,40.8386,3.7814,40.2057,3.0401C38.8132,3.1494,37.4381,3.3283,36.0908,3.5748C35.6706,4.4602,34.6358,5.2572,33.2971,5.6148C31.9541,5.9751,30.6667,5.7919,29.8602,5.2337C28.5467,5.7016,27.261,6.2312,26.0144,6.8284C25.8364,7.7894,25.0568,8.8311,23.8536,9.5264C22.6573,10.2157,21.3682,10.3737,20.4479,10.049C19.3003,10.8433,18.196,11.6949,17.1369,12.5986C17.2072,13.5709,16.7219,14.7697,15.7444,15.7454C14.7686,16.7203,13.5697,17.2073,12.5992,17.1352C11.6928,18.1943,10.8403,19.2994,10.0503,20.4479C10.3733,21.3689,10.2144,22.6571,9.5243,23.8542C8.8298,25.0539,7.7889,25.8352,6.8278,26.0132C6.2323,27.2598,5.701,28.5471,5.234,29.8623C5.7913,30.6679,5.9701,31.9544,5.6099,33.2939C5.2548,34.6316,4.457,35.6663,3.5784,36.0891C3.331,37.439,3.1513,38.8123,3.0393,40.2038C3.779,40.8428,4.2807,42.0451,4.2807,43.4288C4.2807,44.8073,3.779,46.0088,3.0393,46.6468C3.153,48.041,3.331,49.4143,3.5784,50.7642C4.457,51.1869,5.2548,52.2208,5.6099,53.5603C5.9701,54.898,5.7913,56.1819,5.2383,56.9901C5.7019,58.3044,6.2323,59.5926,6.8296,60.841C7.7889,61.018,8.8298,61.7993,9.5243,63.0016C10.2118,64.1961,10.3724,65.4809,10.0503,66.4019C10.8421,67.5504,11.6946,68.6581,12.6009,69.718C13.5741,69.6469,14.7686,70.1321,15.7444,71.1087C16.7202,72.0827,17.2046,73.2781,17.1334,74.2503C18.196,75.154,19.3011,76.0082,20.4514,76.8043C21.3708,76.4813,22.6556,76.6393,23.8527,77.3312C25.0542,78.0222,25.8329,79.0604,26.0109,80.0214C27.2602,80.6178,28.5459,81.1491,29.8628,81.617C30.6684,81.0622,31.955,80.8799,33.2963,81.2402C34.6306,81.597,35.6637,82.3913,36.0864,83.2741C37.4381,83.5207,38.815,83.7021,40.21,83.8097C40.8447,83.0727,42.047,82.5762,43.4282,82.5762C44.8059,82.5762,46.0092,83.0727,46.6472,83.8097C48.0423,83.7021,49.4174,83.5207,50.7674,83.2741C51.1919,82.393,52.2232,81.5987,53.5593,81.2419C54.8988,80.8817,56.1836,81.064,56.9884,81.617C58.3036,81.1499,59.5919,80.6187,60.842,80.0214C61.0191,79.0613,61.8013,78.0239,63.0019,77.3312C64.1956,76.6411,65.4822,76.4813,66.4024,76.8043C67.5527,76.01,68.6604,75.1558,69.7178,74.2503C69.6492,73.2789,70.1336,72.0827,71.1111,71.1087C72.0843,70.1339,73.2797,69.6477,74.2503,69.718C75.1584,68.6572,76.01,67.5522,76.8052,66.4019C76.4814,65.4818,76.6411,64.1961,77.3313,63.0016C78.0249,61.8011,79.0623,61.018,80.026,60.841C80.6198,59.5926,81.1537,58.3053,81.619,56.991C81.0642,56.1828,80.8811,54.898,81.2413,53.5603C81.599,52.2217,82.396,51.1869,83.2771,50.7642C83.5254,49.4134,83.7034,48.0401,83.8136,46.6468C83.0748,46.0088,82.5748,44.8073,82.5722,43.4288C82.5739,42.0451,83.0766,40.8419,83.8162,40.2038Z"/>
</svg>